<svg xmlns="http://www.w3.org/2000/svg" xmlns:xlink="http://www.w3.org/1999/xlink" width="1080" zoomAndPan="magnify" viewBox="0 0 810 809.999993" height="1080" preserveAspectRatio="xMidYMid meet" version="1.0"><defs><clipPath id="c2b8f44e02"><path d="M 405 0 C 181.324219 0 0 181.324219 0 405 C 0 628.675781 181.324219 810 405 810 C 628.675781 810 810 628.675781 810 405 C 810 181.324219 628.675781 0 405 0 Z M 405 0 " clip-rule="nonzero"/></clipPath></defs><g clip-path="url(#c2b8f44e02)"><rect x="-81" width="972" fill="#ffffff" y="-80.999999" height="971.999992" fill-opacity="1"/></g><path fill="#004b8d" d="M 645.984375 600.828125 C 632.667969 613.167969 616.621094 622.285156 594.039062 630.394531 L 323.902344 724.410156 L 323.902344 491.671875 L 522.863281 376.96875 L 523.019531 376.878906 C 526.765625 374.585938 530.425781 372.171875 534.007812 369.632812 L 535.925781 368.316406 C 583.109375 370.421875 619.132812 383.222656 646 407.40625 C 674.28125 434.117188 688.023438 465.761719 688.023438 504.105469 C 688.023438 542.5 674.242188 574.136719 645.984375 600.828125 Z M 493.929688 368.183594 L 323.898438 466.21875 L 323.898438 368.183594 Z M 301.847656 699.164062 L 216.910156 553.671875 L 301.847656 504.453125 Z M 410.847656 108.445312 C 465.832031 108.445312 506.429688 121.277344 534.929688 147.664062 C 562.808594 173.453125 576.957031 205.996094 576.957031 244.386719 C 576.957031 285.566406 559.945312 321.566406 528.984375 346.128906 L 301.847656 346.128906 L 301.847656 478.957031 L 212.832031 530.515625 L 212.832031 108.445312 Z M 661.054688 391.265625 L 660.867188 391.109375 C 634.941406 367.746094 600.808594 353.335938 559.152344 348.15625 C 584.738281 320.546875 599.015625 283.933594 599.015625 244.386719 C 599.015625 199.59375 582.484375 161.601562 549.902344 131.476562 C 517.148438 101.140625 471.65625 86.390625 410.847656 86.390625 L 190.765625 86.390625 L 190.765625 552.65625 L 307.921875 753.320312 L 601.394531 651.191406 C 626.652344 642.125 645.585938 631.273438 661.054688 616.933594 C 693.589844 586.238281 710.074219 548.285156 710.074219 504.105469 C 710.074219 459.9375 693.589844 421.976562 661.054688 391.265625 Z M 661.054688 391.265625 " fill-opacity="1" fill-rule="evenodd"/></svg>