<svg xmlns="http://www.w3.org/2000/svg" width="793.701" height="359.37" viewBox="140 150 320 110"><g data-name="Camada 1" fill="#ffffff"><path d="M212.231 237.713c-2.057 1.906-4.535 3.314-8.023 4.566l-41.72 14.52v-35.944l30.728-17.715.024-.014a30.116 30.116 0 0 0 1.697-1.119l.296-.203c7.287.325 12.851 2.302 17 6.037 4.368 4.125 6.49 9.012 6.49 14.934 0 5.93-2.128 10.816-6.492 14.938zm-23.484-35.93-26.26 15.141v-15.141h26.26zM159.082 252.9l-13.118-22.47 13.118-7.601zm16.834-91.231c8.492 0 14.762 1.982 19.163 6.057 4.306 3.983 6.491 9.009 6.491 14.938 0 6.36-2.627 11.92-7.409 15.713h-35.079v20.514l-13.748 7.963v-65.185h30.582zm38.642 43.679-.029-.024c-4.004-3.608-9.275-5.834-15.709-6.634 3.952-4.264 6.157-9.918 6.157-16.026 0-6.918-2.553-12.785-7.585-17.438-5.059-4.685-12.085-6.963-21.476-6.963h-33.99v72.01l18.094 30.991 45.324-15.773c3.901-1.4 6.825-3.076 9.214-5.291 5.025-4.74 7.571-10.602 7.571-17.425 0-6.821-2.546-12.684-7.571-17.427z" fill-rule="evenodd"/><path d="M386.806 234.59v-28.804h-8.609v-5.945h23.78v5.945h-8.612v28.804h-6.559zM250.162 228.747h-4.305v-9.326h3.691c2.975 0 6.666.817 6.666 4.714 0 3.384-2.975 4.51-6.052 4.612zm-4.305-23.268h3.487c2.665 0 5.947.82 5.947 4.2 0 3.385-2.97 4.513-6.046 4.616h-3.388zm11.79 11.07c2.563-1.23 4.204-4.408 4.204-7.379 0-1.335-.207-2.564-.717-3.69-1.95-4.306-7.072-5.535-11.685-5.64h-10.048v34.543h10.663c3.79 0 7.072-.918 9.33-2.764 2.15-1.745 3.38-4.306 3.38-7.28 0-1.947-.515-3.998-2.052-5.637-.819-.819-1.845-1.64-3.076-2.153zM275.487 218.6l3.788-11.789 3.794 11.789h-7.582zm7.582-18.76h-7.485l-11.886 34.543h6.661l3.382-10.248h11.173l3.283 10.248h7.072l-12.2-34.542zM320.59 234.59l-16.2-22.14v21.933h-6.354v-34.542h5.326l15.38 21.015V199.84h6.354v34.75h-4.507zM366.1 235.004c-3.692-.104-7.28-1.132-10.05-3.488l-.712-.717 4.2-4.408.72.717c1.64 1.433 3.997 1.845 5.942 1.845 2.974 0 4.82-1.334 5.023-3.687.208-2.874-3.385-4.41-5.432-5.334-2.768-1.23-5.332-2.46-7.177-4.303-2.151-1.95-2.871-4.613-2.768-7.281.515-5.944 5.741-9.12 10.972-9.12 2.253 0 4.305.306 6.251 1.228v6.355c-2.769-1.332-4.51-1.743-6.151-1.743h-.1c-2.563 0-4.206 1.334-4.41 3.383-.208 2.872 3.587 4.41 5.637 5.332 3.078 1.434 5.331 2.665 6.971 4.306 2.152 2.047 2.87 4.712 2.664 7.276-.512 6.356-5.738 9.64-11.58 9.64zM331.963 234.383v-34.542h19.888v5.945h-13.328v8.098h10.356v5.843h-10.356v8.713h13.328v5.943h-19.888zM435.596 230.389c3.485-.306 6.355-1.023 8.404-2.05 1.336-.72 2.46-1.948 2.258-3.794-.307-2.564-3.18-3.69-5.228-4.613-2.564-1.127-5.227-2.355-7.175-4.201-2.154-2.153-2.872-4.715-2.768-7.383.412-5.841 5.534-9.12 10.968-9.12 3.792 0 7.073 1.228 9.633 3.79l-4.2 4.307s-2.458-2.257-5.433-2.257c-2.562 0-4.307 1.334-4.41 3.383-.205 2.872 3.59 4.41 5.638 5.332 3.074 1.434 5.33 2.665 7.077 4.2 1.74 1.744 3.173 4.206 2.97 7.283-.51 6.455-6.46 9.426-11.89 10.557-2.77.509-5.946.815-10.15.815v-6.147c1.846 0 3.998-.102 4.306-.102zM413.252 228.44v-8.713h10.352v-5.843h-10.352v-8.098h13.425v-5.945h-19.884v33.624c6.766 1.944 13.12 2.972 20.91 3.173v-6.044a68.349 68.349 0 0 1-14.451-2.154z"/></g></svg>