<svg xmlns="http://www.w3.org/2000/svg" xmlns:xlink="http://www.w3.org/1999/xlink" width="1920" zoomAndPan="magnify" viewBox="0 0 1440 809.999993" height="1080" preserveAspectRatio="xMidYMid meet" version="1.0"><defs><clipPath id="7bd94804cd"><path d="M 709 471 L 746 471 L 746 508 L 709 508 Z M 709 471 " clip-rule="nonzero"/></clipPath><clipPath id="0eff8c6f20"><path d="M 734.96875 466.886719 L 750.089844 482.007812 L 720.4375 511.65625 L 705.316406 496.535156 Z M 734.96875 466.886719 " clip-rule="nonzero"/></clipPath><clipPath id="37b301683b"><path d="M 742.527344 474.445312 C 744.535156 476.449219 745.660156 479.171875 745.660156 482.007812 C 745.660156 484.84375 744.535156 487.5625 742.527344 489.566406 L 728.046875 504.050781 C 726.039062 506.054688 723.320312 507.183594 720.484375 507.183594 C 717.648438 507.183594 714.929688 506.054688 712.925781 504.050781 C 710.917969 502.046875 709.792969 499.324219 709.792969 496.488281 C 709.792969 493.652344 710.917969 490.933594 712.925781 488.929688 L 727.40625 474.445312 C 729.414062 472.441406 732.132812 471.3125 734.96875 471.3125 C 737.804688 471.3125 740.523438 472.441406 742.527344 474.445312 Z M 742.527344 474.445312 " clip-rule="nonzero"/></clipPath><clipPath id="2ad34e0fba"><path d="M 694 471 L 731 471 L 731 508 L 694 508 Z M 694 471 " clip-rule="nonzero"/></clipPath><clipPath id="37b57802b1"><path d="M 734.921875 496.488281 L 719.800781 511.609375 L 690.152344 481.957031 L 705.273438 466.835938 Z M 734.921875 496.488281 " clip-rule="nonzero"/></clipPath><clipPath id="b349492cd1"><path d="M 727.363281 504.046875 C 725.359375 506.050781 722.636719 507.179688 719.800781 507.179688 C 716.96875 507.179688 714.246094 506.050781 712.242188 504.046875 L 697.757812 489.5625 C 695.753906 487.558594 694.625 484.839844 694.625 482.003906 C 694.625 479.167969 695.753906 476.449219 697.757812 474.441406 C 699.765625 472.4375 702.484375 471.3125 705.320312 471.3125 C 708.15625 471.3125 710.875 472.4375 712.878906 474.441406 L 727.363281 488.925781 C 729.367188 490.929688 730.496094 493.652344 730.496094 496.488281 C 730.496094 499.324219 729.367188 502.042969 727.363281 504.046875 Z M 727.363281 504.046875 " clip-rule="nonzero"/></clipPath></defs><path stroke-linecap="round" transform="matrix(0.207823, 0.207823, -0.207823, 0.207823, 536.949891, 298.389936)" fill="none" stroke-linejoin="miter" d="M 36.501991 36.505226 L 844.300324 36.505226 " stroke="#000000" stroke-width="73" stroke-opacity="1" stroke-miterlimit="4"/><path stroke-linecap="round" transform="matrix(0.207823, -0.207823, 0.207823, 0.207823, 719.999922, 481.439612)" fill="none" stroke-linejoin="miter" d="M 36.497822 36.506456 L 844.296155 36.506456 " stroke="#000000" stroke-width="73" stroke-opacity="1" stroke-miterlimit="4"/><g clip-path="url(#7bd94804cd)"><g clip-path="url(#0eff8c6f20)"><g clip-path="url(#37b301683b)"><path fill="#000000" d="M 734.96875 466.886719 L 750.089844 482.007812 L 720.496094 511.597656 L 705.375 496.476562 Z M 734.96875 466.886719 " fill-opacity="1" fill-rule="nonzero"/></g></g></g><g clip-path="url(#2ad34e0fba)"><g clip-path="url(#37b57802b1)"><g clip-path="url(#b349492cd1)"><path fill="#000000" d="M 734.921875 496.488281 L 719.800781 511.609375 L 690.210938 482.015625 L 705.332031 466.894531 Z M 734.921875 496.488281 " fill-opacity="1" fill-rule="nonzero"/></g></g></g></svg>